# xmcd
#
# Track frame offsets: 
#        182
#        15432
#        37480
#        65412
#        84425
#        113182
#        134217
#        155097
#        173617
#        189377
#
# Disc length: 2914 seconds
#
# Revision: 1
# Processed by: cddbd v1.5.2PL0 Copyright (c) Steve Scherf et al.
# Submitted via: ExactAudioCopyFreeDBPlugin 1.0
#
DISCID=880b600a
DTITLE=Dart - 36 Cents An Hour
DYEAR=1995
DGENRE=Ché
TTITLE0=5<12
TTITLE1=Bugger
TTITLE2=10 Below
TTITLE3=This Year
TTITLE4=All The Way Home
TTITLE5=Planet Sunrise
TTITLE6=Aftermath
TTITLE7=(Beneath The) Seaford
TTITLE8=Truczinski's Back
TTITLE9=Concussion
EXTD=
EXTT0=
EXTT1=
EXTT2=
EXTT3=
EXTT4=
EXTT5=
EXTT6=
EXTT7=
EXTT8=
EXTT9=
PLAYORDER=
